<?xml version="1.0" standalone="no"?>
<!DOCTYPE svg PUBLIC "-//W3C//DTD SVG 20010904//EN"
 "http://www.w3.org/TR/2001/REC-SVG-20010904/DTD/svg10.dtd">
<svg version="1.0" xmlns="http://www.w3.org/2000/svg"
 width="512.000000pt" height="512.000000pt" viewBox="0 0 512.000000 512.000000"
 preserveAspectRatio="xMidYMid meet">

<g transform="translate(0.000000,512.000000) scale(0.100000,-0.100000)"
fill="#1DB954" stroke="none">
<path d="M2240 5109 c-623 -47 -1161 -249 -1483 -556 -57 -55 -64 -98 -21
-132 46 -36 50 -34 203 90 279 227 688 377 1182 436 178 21 677 24 844 5 633
-73 1058 -257 1386 -599 409 -427 579 -1101 493 -1953 -27 -264 -95 -618 -161
-830 -24 -77 -26 -102 -28 -270 -1 -157 -5 -196 -23 -255 -40 -133 -211 -554
-248 -612 -76 -119 -207 -217 -343 -257 -30 -9 -56 -14 -59 -12 -2 3 123 352
279 778 318 871 319 876 355 1048 107 521 107 1022 -1 1429 -34 125 -43 143
-83 155 -27 7 -38 6 -60 -11 -36 -27 -38 -55 -8 -165 113 -416 104 -993 -25
-1501 -19 -77 -79 -251 -84 -245 -103 123 -281 325 -290 330 -6 4 -88 35 -181
70 -158 58 -175 62 -254 62 -65 0 -99 -5 -142 -23 -70 -27 -145 -93 -181 -158
-36 -66 -486 -1304 -498 -1370 -20 -106 23 -236 106 -318 55 -55 89 -72 288
-144 l162 -59 205 34 c113 18 210 34 216 34 6 0 9 -12 6 -29 -3 -22 2 -36 21
-55 31 -31 76 -34 189 -12 252 49 452 203 558 431 50 107 198 492 223 580 15
55 20 108 23 250 3 174 4 185 43 328 70 258 121 544 152 842 19 176 16 600 -5
764 -61 495 -227 900 -495 1206 -284 326 -729 556 -1256 649 -261 46 -721 67
-1005 45z m1566 -3189 c66 -24 120 -44 122 -45 3 -2 -596 -1647 -603 -1653 -2
-2 -63 17 -134 43 -141 51 -189 85 -219 154 -35 84 -31 99 221 788 130 354
245 656 256 672 23 32 75 68 119 82 48 15 116 3 238 -41z m382 -303 l111 -129
-28 -76 c-15 -43 -115 -316 -221 -608 l-194 -531 -178 -28 c-98 -15 -180 -26
-183 -23 -3 3 121 350 275 772 154 423 280 771 280 774 0 9 12 -5 138 -151z"/>
<path d="M2310 4744 c-19 -2 -84 -9 -145 -15 -481 -47 -907 -224 -1195 -496
-492 -463 -663 -1288 -465 -2245 35 -170 37 -177 354 -1046 156 -426 281 -776
279 -778 -3 -2 -29 3 -59 12 -136 40 -267 138 -343 257 -37 58 -208 479 -248
612 -18 59 -22 99 -23 255 -2 168 -5 193 -29 270 -65 214 -131 556 -162 840
-21 185 -23 596 -6 745 51 421 152 722 338 999 58 87 60 92 43 130 -16 33 -57
50 -92 37 -65 -25 -242 -352 -322 -593 -92 -282 -128 -536 -128 -913 0 -419
54 -814 170 -1235 32 -118 34 -136 37 -305 4 -213 6 -225 126 -535 135 -353
187 -445 303 -544 143 -121 332 -196 493 -196 58 0 98 36 92 81 -3 17 0 29 6
29 6 0 103 -16 216 -34 l205 -34 160 58 c197 70 235 89 290 145 83 82 126 212
106 318 -16 88 -279 800 -303 820 -11 9 -30 17 -43 17 -34 0 -75 -37 -75 -69
0 -15 61 -193 136 -397 146 -396 155 -436 122 -515 -30 -69 -78 -103 -219
-154 -71 -26 -132 -45 -134 -43 -7 7 -606 1651 -603 1653 2 1 57 21 123 46
150 55 215 59 287 16 64 -37 82 -66 139 -225 55 -152 82 -188 128 -177 39 10
61 35 61 70 0 33 -74 244 -110 315 -45 88 -130 155 -234 185 -92 27 -155 17
-359 -58 -144 -52 -184 -71 -205 -96 -15 -17 -79 -91 -142 -165 l-115 -135
-16 38 c-116 266 -194 827 -169 1215 52 830 413 1345 1103 1571 279 91 483
119 877 119 393 0 597 -27 877 -119 392 -129 672 -347 863 -673 27 -45 53 -77
68 -83 31 -12 71 7 92 44 14 26 13 31 -24 101 -48 92 -143 222 -232 315 -277
295 -682 478 -1205 547 -117 15 -602 28 -689 18z m-960 -3749 c154 -422 278
-770 275 -773 -3 -3 -85 8 -183 23 l-178 28 -194 531 c-106 292 -206 565 -221
607 l-28 77 121 141 c67 77 123 140 124 138 2 -2 129 -349 284 -772z"/>
</g>
</svg>
